<svg id="visual" viewBox="0 0 960 540" width="960" height="540" xmlns="http://www.w3.org/2000/svg" xmlns:xlink="http://www.w3.org/1999/xlink" version="1.1"><rect x="0" y="0" width="960" height="540" fill="#001220"></rect><defs><linearGradient id="grad1_0" x1="43.8%" y1="0%" x2="100%" y2="100%"><stop offset="14.444444444444446%" stop-color="#fbae3c" stop-opacity="1"></stop><stop offset="85.55555555555554%" stop-color="#fbae3c" stop-opacity="1"></stop></linearGradient></defs><defs><linearGradient id="grad1_1" x1="43.8%" y1="0%" x2="100%" y2="100%"><stop offset="14.444444444444446%" stop-color="#fbae3c" stop-opacity="1"></stop><stop offset="85.55555555555554%" stop-color="#96446e" stop-opacity="1"></stop></linearGradient></defs><defs><linearGradient id="grad1_2" x1="43.8%" y1="0%" x2="100%" y2="100%"><stop offset="14.444444444444446%" stop-color="#001220" stop-opacity="1"></stop><stop offset="85.55555555555554%" stop-color="#96446e" stop-opacity="1"></stop></linearGradient></defs><defs><linearGradient id="grad2_0" x1="0%" y1="0%" x2="56.3%" y2="100%"><stop offset="14.444444444444446%" stop-color="#fbae3c" stop-opacity="1"></stop><stop offset="85.55555555555554%" stop-color="#fbae3c" stop-opacity="1"></stop></linearGradient></defs><defs><linearGradient id="grad2_1" x1="0%" y1="0%" x2="56.3%" y2="100%"><stop offset="14.444444444444446%" stop-color="#96446e" stop-opacity="1"></stop><stop offset="85.55555555555554%" stop-color="#fbae3c" stop-opacity="1"></stop></linearGradient></defs><defs><linearGradient id="grad2_2" x1="0%" y1="0%" x2="56.3%" y2="100%"><stop offset="14.444444444444446%" stop-color="#96446e" stop-opacity="1"></stop><stop offset="85.55555555555554%" stop-color="#001220" stop-opacity="1"></stop></linearGradient></defs><g transform="translate(960, 0)"><path d="M0 486C-70.4 487.3 -140.8 488.6 -186 449C-231.1 409.4 -251 329 -274.4 274.4C-297.7 219.7 -324.5 190.7 -360.3 149.2C-396.2 107.8 -441.1 53.9 -486 0L0 0Z" fill="#3d3056"></path><path d="M0 324C-46.9 324.9 -93.9 325.7 -124 299.3C-154.1 273 -167.4 219.4 -182.9 182.9C-198.5 146.4 -216.3 127.1 -240.2 99.5C-264.1 71.9 -294.1 35.9 -324 0L0 0Z" fill="#e1685e"></path><path d="M0 162C-23.5 162.4 -46.9 162.9 -62 149.7C-77 136.5 -83.7 109.7 -91.5 91.5C-99.2 73.2 -108.2 63.6 -120.1 49.7C-132.1 35.9 -147 18 -162 0L0 0Z" fill="#fbae3c"></path></g><g transform="translate(0, 540)"><path d="M0 -486C64.1 -480.2 128.2 -474.5 186 -449C243.8 -423.6 295.3 -378.4 327.4 -327.4C359.5 -276.3 372.2 -219.3 395.4 -163.8C418.6 -108.2 452.3 -54.1 486 0L0 0Z" fill="#3d3056"></path><path d="M0 -324C42.7 -320.2 85.5 -316.3 124 -299.3C162.5 -282.4 196.9 -252.3 218.3 -218.3C239.7 -184.2 248.1 -146.2 263.6 -109.2C279.1 -72.2 301.5 -36.1 324 0L0 0Z" fill="#e1685e"></path><path d="M0 -162C21.4 -160.1 42.7 -158.2 62 -149.7C81.3 -141.2 98.4 -126.1 109.1 -109.1C119.8 -92.1 124.1 -73.1 131.8 -54.6C139.5 -36.1 150.8 -18 162 0L0 0Z" fill="#fbae3c"></path></g></svg>